<svg width="17" height="12" viewBox="0 0 17 12" fill="none" xmlns="http://www.w3.org/2000/svg">
<path d="M16.4224 5.61921C16.3748 5.49646 16.3035 5.38431 16.2124 5.28921L12.2124 1.28921C12.1192 1.19597 12.0085 1.12201 11.8867 1.07155C11.7649 1.02109 11.6343 0.995117 11.5024 0.995117C11.2361 0.995117 10.9807 1.10091 10.7924 1.28921C10.6041 1.47751 10.4984 1.73291 10.4984 1.99921C10.4984 2.26551 10.6041 2.52091 10.7924 2.70921L13.0924 4.99921H1.50244C1.23722 4.99921 0.982871 5.10457 0.795335 5.2921C0.607798 5.47964 0.502441 5.73399 0.502441 5.99921C0.502441 6.26443 0.607798 6.51878 0.795335 6.70632C0.982871 6.89385 1.23722 6.99921 1.50244 6.99921H13.0924L10.7924 9.28921C10.6987 9.38217 10.6243 9.49277 10.5735 9.61463C10.5228 9.73649 10.4966 9.8672 10.4966 9.99921C10.4966 10.1312 10.5228 10.2619 10.5735 10.3838C10.6243 10.5056 10.6987 10.6162 10.7924 10.7092C10.8854 10.8029 10.996 10.8773 11.1179 10.9281C11.2397 10.9789 11.3704 11.005 11.5024 11.005C11.6345 11.005 11.7652 10.9789 11.887 10.9281C12.0089 10.8773 12.1195 10.8029 12.2124 10.7092L16.2124 6.70921C16.3035 6.61411 16.3748 6.50196 16.4224 6.37921C16.5225 6.13575 16.5225 5.86267 16.4224 5.61921Z" fill="black"/>
</svg>
