<svg width="50" height="50" viewBox="0 0 50 50" fill="none" xmlns="http://www.w3.org/2000/svg">
<rect width="50" height="50" rx="25" fill="#65B6E3"/>
<path d="M38.3333 38.3333V34.9999C38.3333 33.2318 37.6309 31.5361 36.3807 30.2859C35.1305 29.0356 33.4348 28.3333 31.6667 28.3333H18.3333C16.5652 28.3333 14.8695 29.0356 13.6193 30.2859C12.369 31.5361 11.6667 33.2318 11.6667 34.9999V38.3333" stroke="white" stroke-width="1.5" stroke-linecap="round" stroke-linejoin="round"/>
<path d="M25.0002 21.6666C28.6821 21.6666 31.6669 18.6818 31.6669 14.9999C31.6669 11.318 28.6821 8.33325 25.0002 8.33325C21.3183 8.33325 18.3335 11.318 18.3335 14.9999C18.3335 18.6818 21.3183 21.6666 25.0002 21.6666Z" stroke="white" stroke-width="1.5" stroke-linecap="round" stroke-linejoin="round"/>
</svg>
