<svg width="20" height="20" viewBox="0 0 20 20" fill="none" xmlns="http://www.w3.org/2000/svg">
<path d="M14.5833 2.02492C11.0083 0.00825185 6.60834 0.649919 3.67501 3.39992V1.74992C3.67501 1.19992 3.30834 0.833252 2.75834 0.833252C2.20834 0.833252 1.84168 1.19992 1.84168 1.74992V5.87492C1.84168 6.42492 2.20834 6.79159 2.75834 6.79159H6.88334C7.43334 6.79159 7.80001 6.42492 7.80001 5.87492C7.80001 5.32492 7.43334 4.95825 6.88334 4.95825H4.68334C6.05834 3.49159 7.98334 2.66659 10 2.66659C14.0333 2.66659 17.3333 5.96659 17.3333 9.99992C17.3333 14.0333 14.0333 17.3333 10 17.3333C5.96668 17.3333 2.66668 14.0333 2.66668 9.99992C2.66668 9.44992 2.30001 9.08325 1.75001 9.08325C1.20001 9.08325 0.833344 9.44992 0.833344 9.99992C0.833344 15.0416 4.95834 19.1666 10 19.1666C13.3 19.1666 16.325 17.4249 17.975 14.5833C20.45 10.1833 18.9833 4.59159 14.5833 2.02492ZM10 6.33325C9.45001 6.33325 9.08334 6.69992 9.08334 7.24992V9.99992C9.08334 10.5499 9.45001 10.9166 10 10.9166H11.8333C12.3833 10.9166 12.75 10.5499 12.75 9.99992C12.75 9.44992 12.3833 9.08325 11.8333 9.08325H10.9167V7.24992C10.9167 6.69992 10.55 6.33325 10 6.33325Z" fill="black"/>
</svg>
