<svg width="20" height="20" viewBox="0 0 20 20" fill="none" xmlns="http://www.w3.org/2000/svg">
<path d="M18.25 10.0001C18.0069 10.0001 17.7737 10.0967 17.6018 10.2686C17.4299 10.4405 17.3333 10.6737 17.3333 10.9168V16.4168C17.3333 16.6599 17.2368 16.893 17.0648 17.065C16.8929 17.2369 16.6598 17.3334 16.4167 17.3334H3.58333C3.34021 17.3334 3.10706 17.2369 2.93515 17.065C2.76324 16.893 2.66666 16.6599 2.66666 16.4168V3.58344C2.66666 3.34032 2.76324 3.10717 2.93515 2.93526C3.10706 2.76335 3.34021 2.66677 3.58333 2.66677H9.08333C9.32644 2.66677 9.5596 2.5702 9.73151 2.39829C9.90342 2.22638 9.99999 1.99322 9.99999 1.75011C9.99999 1.50699 9.90342 1.27383 9.73151 1.10193C9.5596 0.930017 9.32644 0.83344 9.08333 0.83344H3.58333C2.85398 0.83344 2.15451 1.12317 1.63878 1.6389C1.12306 2.15462 0.833328 2.85409 0.833328 3.58344V16.4168C0.833328 17.1461 1.12306 17.8456 1.63878 18.3613C2.15451 18.877 2.85398 19.1668 3.58333 19.1668H16.4167C17.146 19.1668 17.8455 18.877 18.3612 18.3613C18.8769 17.8456 19.1667 17.1461 19.1667 16.4168V10.9168C19.1667 10.6737 19.0701 10.4405 18.8982 10.2686C18.7263 10.0967 18.4931 10.0001 18.25 10.0001ZM4.49999 10.6968V14.5834C4.49999 14.8266 4.59657 15.0597 4.76848 15.2316C4.94039 15.4035 5.17355 15.5001 5.41666 15.5001H9.30333C9.42397 15.5008 9.54356 15.4777 9.65524 15.4321C9.76693 15.3864 9.86851 15.3192 9.95416 15.2343L16.2975 8.88177L18.9008 6.33344C18.9867 6.24822 19.0549 6.14684 19.1015 6.03514C19.148 5.92343 19.172 5.80362 19.172 5.68261C19.172 5.5616 19.148 5.44178 19.1015 5.33008C19.0549 5.21837 18.9867 5.11699 18.9008 5.03177L15.0142 1.09927C14.9289 1.01336 14.8276 0.945161 14.7159 0.898623C14.6042 0.852085 14.4843 0.828125 14.3633 0.828125C14.2423 0.828125 14.1225 0.852085 14.0108 0.898623C13.8991 0.945161 13.7977 1.01336 13.7125 1.09927L11.1275 3.69344L4.76583 10.0459C4.68087 10.1316 4.61366 10.2332 4.56804 10.3449C4.52242 10.4565 4.4993 10.5761 4.49999 10.6968V10.6968ZM14.3633 3.04261L16.9575 5.63677L15.6558 6.93844L13.0617 4.34427L14.3633 3.04261ZM6.33333 11.0726L11.7692 5.63677L14.3633 8.23094L8.92749 13.6668H6.33333V11.0726Z" fill="black"/>
</svg>
