<svg width="16" height="11" viewBox="0 0 16 11" fill="none" xmlns="http://www.w3.org/2000/svg">
<path d="M0.074995 5.07282C0.122589 4.95007 0.193955 4.83793 0.284996 4.74282L4.285 0.742822C4.37823 0.649584 4.48892 0.575623 4.61075 0.525163C4.73257 0.474702 4.86314 0.44873 4.995 0.44873C5.2613 0.44873 5.51669 0.554518 5.70499 0.742822C5.8933 0.931126 5.99909 1.18652 5.99909 1.45282C5.99909 1.71912 5.8933 1.97452 5.70499 2.16282L3.40499 4.45282H14.995C15.2602 4.45282 15.5146 4.55818 15.7021 4.74572C15.8896 4.93325 15.995 5.18761 15.995 5.45282C15.995 5.71804 15.8896 5.97239 15.7021 6.15993C15.5146 6.34747 15.2602 6.45282 14.995 6.45282H3.40499L5.70499 8.74282C5.79872 8.83579 5.87312 8.94639 5.92389 9.06824C5.97466 9.1901 6.00079 9.32081 6.00079 9.45282C6.00079 9.58483 5.97466 9.71554 5.92389 9.8374C5.87312 9.95926 5.79872 10.0699 5.70499 10.1628C5.61203 10.2565 5.50143 10.3309 5.37957 10.3817C5.25771 10.4325 5.12701 10.4586 4.995 10.4586C4.86298 10.4586 4.73228 10.4325 4.61042 10.3817C4.48856 10.3309 4.37796 10.2565 4.285 10.1628L0.284996 6.16282C0.193955 6.06772 0.122589 5.95557 0.074995 5.83282C-0.0250225 5.58936 -0.0250225 5.31628 0.074995 5.07282Z" fill="black"/>
</svg>
