<svg width="16" height="11" viewBox="0 0 16 11" fill="none" xmlns="http://www.w3.org/2000/svg">
<path d="M15.9249 5.07282C15.8773 4.95007 15.8059 4.83793 15.7149 4.74282L11.7149 0.742822C11.6216 0.649584 11.511 0.575623 11.3891 0.525163C11.2673 0.474702 11.1367 0.44873 11.0049 0.44873C10.7386 0.44873 10.4832 0.554518 10.2949 0.742822C10.1066 0.931126 10.0008 1.18652 10.0008 1.45282C10.0008 1.71912 10.1066 1.97452 10.2949 2.16282L12.5949 4.45282H1.00488C0.739666 4.45282 0.485313 4.55818 0.297776 4.74572C0.11024 4.93325 0.00488281 5.18761 0.00488281 5.45282C0.00488281 5.71804 0.11024 5.97239 0.297776 6.15993C0.485313 6.34747 0.739666 6.45282 1.00488 6.45282H12.5949L10.2949 8.74282C10.2012 8.83579 10.1268 8.94639 10.076 9.06824C10.0252 9.1901 9.99908 9.32081 9.99908 9.45282C9.99908 9.58483 10.0252 9.71554 10.076 9.8374C10.1268 9.95926 10.2012 10.0699 10.2949 10.1628C10.3878 10.2565 10.4984 10.3309 10.6203 10.3817C10.7422 10.4325 10.8729 10.4586 11.0049 10.4586C11.1369 10.4586 11.2676 10.4325 11.3895 10.3817C11.5113 10.3309 11.6219 10.2565 11.7149 10.1628L15.7149 6.16282C15.8059 6.06772 15.8773 5.95557 15.9249 5.83282C16.0249 5.58936 16.0249 5.31628 15.9249 5.07282Z" fill="black"/>
</svg>
