<svg width="20" height="18" viewBox="0 0 20 18" fill="none" xmlns="http://www.w3.org/2000/svg">
<path d="M8.52699 1.85092L1.23087 14.3485C1.08044 14.6158 1.00085 14.9188 1.00001 15.2275C0.999164 15.5361 1.0771 15.8396 1.22607 16.1078C1.37504 16.3759 1.58984 16.5994 1.84911 16.7559C2.10838 16.9125 2.40308 16.9966 2.70388 17H17.2961C17.5969 16.9966 17.8916 16.9125 18.1509 16.7559C18.4102 16.5994 18.625 16.3759 18.7739 16.1078C18.9229 15.8396 19.0008 15.5361 19 15.2275C18.9992 14.9188 18.9196 14.6158 18.7691 14.3485L11.473 1.85092C11.3194 1.59116 11.1032 1.3764 10.8452 1.22735C10.5872 1.0783 10.2961 1 10 1C9.7039 1 9.41281 1.0783 9.15479 1.22735C8.89678 1.3764 8.68056 1.59116 8.52699 1.85092Z" stroke="#1D2129" stroke-width="1.5" stroke-linecap="round" stroke-linejoin="round"/>
<path d="M10.0002 6.3938V9.92917" stroke="#1D2129" stroke-width="1.5" stroke-linecap="round" stroke-linejoin="round"/>
<path d="M10.0002 13.4646H10.0091" stroke="#1D2129" stroke-width="1.5" stroke-linecap="round" stroke-linejoin="round"/>
</svg>
