<svg width="21" height="21" viewBox="0 0 21 21" fill="none" xmlns="http://www.w3.org/2000/svg">
<path d="M18.34 7.82001L4.34 0.820006C3.78749 0.545015 3.16362 0.447117 2.55344 0.539658C1.94326 0.632199 1.37646 0.910676 0.930335 1.33712C0.484207 1.76357 0.180456 2.31723 0.060496 2.92262C-0.059464 3.52801 0.0102046 4.15566 0.260003 4.72001L2.66 10.09C2.71446 10.2198 2.74251 10.3592 2.74251 10.5C2.74251 10.6408 2.71446 10.7802 2.66 10.91L0.260003 16.28C0.0567034 16.7367 -0.029241 17.237 0.00998036 17.7354C0.0492018 18.2337 0.212345 18.7144 0.484585 19.1337C0.756825 19.553 1.12953 19.8976 1.56883 20.1362C2.00812 20.3748 2.50009 20.4999 3 20.5C3.46823 20.4953 3.92949 20.386 4.35 20.18L18.35 13.18C18.8466 12.9302 19.264 12.5473 19.5557 12.0741C19.8474 11.6009 20.0018 11.0559 20.0018 10.5C20.0018 9.94411 19.8474 9.39915 19.5557 8.92593C19.264 8.4527 18.8466 8.06982 18.35 7.82001H18.34ZM17.45 11.39L3.45 18.39C3.26617 18.4783 3.05973 18.5082 2.85839 18.4759C2.65705 18.4435 2.47041 18.3503 2.32352 18.2089C2.17662 18.0674 2.07648 17.8844 2.03653 17.6844C1.99658 17.4845 2.01873 17.277 2.1 17.09L4.49 11.72C4.52094 11.6483 4.54766 11.5748 4.57 11.5H11.46C11.7252 11.5 11.9796 11.3946 12.1671 11.2071C12.3546 11.0196 12.46 10.7652 12.46 10.5C12.46 10.2348 12.3546 9.98044 12.1671 9.7929C11.9796 9.60536 11.7252 9.50001 11.46 9.50001H4.57C4.54766 9.42517 4.52094 9.35172 4.49 9.28001L2.1 3.91001C2.01873 3.72297 1.99658 3.51556 2.03653 3.31558C2.07648 3.1156 2.17662 2.93261 2.32352 2.79115C2.47041 2.6497 2.65705 2.55654 2.85839 2.52416C3.05973 2.49178 3.26617 2.52174 3.45 2.61001L17.45 9.61001C17.6138 9.69392 17.7513 9.82142 17.8473 9.97845C17.9433 10.1355 17.994 10.316 17.994 10.5C17.994 10.6841 17.9433 10.8645 17.8473 11.0216C17.7513 11.1786 17.6138 11.3061 17.45 11.39Z" fill="#6D6D6D"/>
</svg>
